<svg width="120" height="18" viewBox="0 0 120 18" fill="none" xmlns="http://www.w3.org/2000/svg">
<path d="M12.2587 5.432C12.2587 6.328 12.0427 7.168 11.6107 7.952C11.1947 8.736 10.5307 9.368 9.61872 9.848C8.72272 10.328 7.58672 10.568 6.21072 10.568H3.40272V17H0.0427189V0.248H6.21072C7.50672 0.248 8.61072 0.472 9.52272 0.92C10.4347 1.368 11.1147 1.984 11.5627 2.768C12.0267 3.552 12.2587 4.44 12.2587 5.432ZM6.06672 7.856C6.99472 7.856 7.68272 7.648 8.13072 7.232C8.57872 6.8 8.80272 6.2 8.80272 5.432C8.80272 3.8 7.89072 2.984 6.06672 2.984H3.40272V7.856H6.06672ZM18.0043 2.96V7.16H23.6443V9.824H18.0043V14.264H24.3643V17H14.6443V0.223999H24.3643V2.96H18.0043ZM41.7457 17H38.3857L30.7777 5.504V17H27.4177V0.223999H30.7777L38.3857 11.744V0.223999H41.7457V17ZM50.8502 17.168C49.6822 17.168 48.6262 16.968 47.6822 16.568C46.7542 16.168 46.0182 15.592 45.4742 14.84C44.9302 14.088 44.6502 13.2 44.6342 12.176H48.2342C48.2822 12.864 48.5222 13.408 48.9542 13.808C49.4022 14.208 50.0102 14.408 50.7782 14.408C51.5622 14.408 52.1782 14.224 52.6262 13.856C53.0742 13.472 53.2982 12.976 53.2982 12.368C53.2982 11.872 53.1462 11.464 52.8422 11.144C52.5382 10.824 52.1542 10.576 51.6902 10.4C51.2422 10.208 50.6182 10 49.8182 9.776C48.7302 9.456 47.8422 9.144 47.1542 8.84C46.4822 8.52 45.8982 8.048 45.4022 7.424C44.9222 6.784 44.6822 5.936 44.6822 4.88C44.6822 3.888 44.9302 3.024 45.4262 2.288C45.9222 1.552 46.6182 0.991999 47.5142 0.607999C48.4102 0.208 49.4342 0.0079999 50.5862 0.0079999C52.3142 0.0079999 53.7142 0.432 54.7862 1.28C55.8742 2.112 56.4742 3.28 56.5862 4.784H52.8902C52.8582 4.208 52.6102 3.736 52.1462 3.368C51.6982 2.984 51.0982 2.792 50.3462 2.792C49.6902 2.792 49.1622 2.96 48.7622 3.296C48.3782 3.632 48.1862 4.12 48.1862 4.76C48.1862 5.208 48.3302 5.584 48.6182 5.888C48.9222 6.176 49.2902 6.416 49.7222 6.608C50.1702 6.784 50.7942 6.992 51.5942 7.232C52.6822 7.552 53.5702 7.872 54.2582 8.192C54.9462 8.512 55.5382 8.992 56.0342 9.632C56.5302 10.272 56.7782 11.112 56.7782 12.152C56.7782 13.048 56.5462 13.88 56.0822 14.648C55.6182 15.416 54.9382 16.032 54.0422 16.496C53.1462 16.944 52.0822 17.168 50.8502 17.168Z" fill="#C93D8D"/>
<path d="M83.6739 0.248V17H80.3139V6.104L75.8259 17H73.2819L68.7699 6.104V17H65.4099V0.248H69.2259L74.5539 12.704L79.8819 0.248H83.6739ZM86.1318 10.304C86.1318 8.96 86.3958 7.768 86.9238 6.728C87.4678 5.688 88.1958 4.888 89.1078 4.328C90.0358 3.768 91.0678 3.488 92.2038 3.488C93.1958 3.488 94.0598 3.688 94.7958 4.088C95.5478 4.488 96.1478 4.992 96.5958 5.6V3.704H99.9798V17H96.5958V15.056C96.1638 15.68 95.5638 16.2 94.7958 16.616C94.0438 17.016 93.1718 17.216 92.1798 17.216C91.0598 17.216 90.0358 16.928 89.1078 16.352C88.1958 15.776 87.4678 14.968 86.9238 13.928C86.3958 12.872 86.1318 11.664 86.1318 10.304ZM96.5958 10.352C96.5958 9.536 96.4358 8.84 96.1158 8.264C95.7958 7.672 95.3638 7.224 94.8198 6.92C94.2758 6.6 93.6918 6.44 93.0678 6.44C92.4438 6.44 91.8678 6.592 91.3398 6.896C90.8118 7.2 90.3798 7.648 90.0438 8.24C89.7238 8.816 89.5638 9.504 89.5638 10.304C89.5638 11.104 89.7238 11.808 90.0438 12.416C90.3798 13.008 90.8118 13.464 91.3398 13.784C91.8838 14.104 92.4598 14.264 93.0678 14.264C93.6918 14.264 94.2758 14.112 94.8198 13.808C95.3638 13.488 95.7958 13.04 96.1158 12.464C96.4358 11.872 96.5958 11.168 96.5958 10.352ZM106.621 5.768C107.053 5.064 107.613 4.512 108.301 4.112C109.005 3.712 109.805 3.512 110.701 3.512V7.04H109.813C108.757 7.04 107.957 7.288 107.413 7.784C106.885 8.28 106.621 9.144 106.621 10.376V17H103.261V3.704H106.621V5.768ZM116.877 6.464V12.896C116.877 13.344 116.981 13.672 117.189 13.88C117.413 14.072 117.781 14.168 118.293 14.168H119.853V17H117.741C114.909 17 113.493 15.624 113.493 12.872V6.464H111.909V3.704H113.493V0.415999H116.877V3.704H119.853V6.464H116.877Z" fill="white"/>
</svg>
